<mxfile host="65bd71144e">
    <diagram id="tR0yiAiBcpxvpc5OXnQ_" name="Page-1">
        <mxGraphModel dx="1254" dy="1071" grid="1" gridSize="10" guides="1" tooltips="1" connect="1" arrows="1" fold="1" page="1" pageScale="1" pageWidth="850" pageHeight="1100" math="0" shadow="0">
            <root>
                <mxCell id="0"/>
                <mxCell id="1" parent="0"/>
                <mxCell id="13" style="edgeStyle=none;html=1;exitX=0.5;exitY=1;exitDx=0;exitDy=0;entryX=0.5;entryY=0;entryDx=0;entryDy=0;" edge="1" parent="1" source="2" target="12">
                    <mxGeometry relative="1" as="geometry"/>
                </mxCell>
                <mxCell id="2" value="&lt;b&gt;Begin&lt;/b&gt;" style="ellipse;whiteSpace=wrap;html=1;fillColor=#7303fc;" parent="1" vertex="1">
                    <mxGeometry x="380" y="80" width="120" height="80" as="geometry"/>
                </mxCell>
                <mxCell id="15" style="edgeStyle=none;html=1;exitX=0.5;exitY=1;exitDx=0;exitDy=0;entryX=0.5;entryY=0;entryDx=0;entryDy=0;" edge="1" parent="1" source="12" target="14">
                    <mxGeometry relative="1" as="geometry"/>
                </mxCell>
                <mxCell id="12" value="&lt;b&gt;When popup adding task feature is appear, user will be fill in the input form&lt;/b&gt;" style="shape=parallelogram;perimeter=parallelogramPerimeter;whiteSpace=wrap;html=1;fixedSize=1;strokeColor=#faf7fc;fillColor=#7305fa;" vertex="1" parent="1">
                    <mxGeometry x="340" y="230" width="200" height="100" as="geometry"/>
                </mxCell>
                <mxCell id="17" style="edgeStyle=none;html=1;exitX=0.5;exitY=1;exitDx=0;exitDy=0;entryX=0.5;entryY=0;entryDx=0;entryDy=0;" edge="1" parent="1" source="14" target="16">
                    <mxGeometry relative="1" as="geometry"/>
                </mxCell>
                <mxCell id="14" value="&lt;b&gt;There are title task, description task, how many task&lt;/b&gt;" style="rounded=0;whiteSpace=wrap;html=1;strokeColor=#faf7fc;fillColor=#7305fa;" vertex="1" parent="1">
                    <mxGeometry x="350" y="380" width="180" height="90" as="geometry"/>
                </mxCell>
                <mxCell id="22" value="No" style="edgeStyle=none;html=1;exitX=1;exitY=0.5;exitDx=0;exitDy=0;" edge="1" parent="1" source="16" target="18">
                    <mxGeometry relative="1" as="geometry"/>
                </mxCell>
                <mxCell id="24" value="Yes" style="edgeStyle=none;html=1;exitX=0.5;exitY=1;exitDx=0;exitDy=0;entryX=0.5;entryY=0;entryDx=0;entryDy=0;" edge="1" parent="1" source="16" target="23">
                    <mxGeometry relative="1" as="geometry"/>
                </mxCell>
                <mxCell id="16" value="&lt;b&gt;The form is all fill ?&lt;/b&gt;" style="rhombus;whiteSpace=wrap;html=1;strokeColor=#faf7fc;fillColor=#7305fa;" vertex="1" parent="1">
                    <mxGeometry x="380" y="510" width="120" height="120" as="geometry"/>
                </mxCell>
                <mxCell id="20" style="edgeStyle=none;html=1;exitX=0.5;exitY=1;exitDx=0;exitDy=0;entryX=1;entryY=0.5;entryDx=0;entryDy=0;" edge="1" parent="1" source="18" target="21">
                    <mxGeometry relative="1" as="geometry">
                        <mxPoint x="540" y="870" as="targetPoint"/>
                        <Array as="points">
                            <mxPoint x="650" y="940"/>
                        </Array>
                    </mxGeometry>
                </mxCell>
                <mxCell id="18" value="&lt;b&gt;Return this program&lt;br&gt;( Error )&lt;/b&gt;" style="shape=parallelogram;perimeter=parallelogramPerimeter;whiteSpace=wrap;html=1;fixedSize=1;strokeColor=#faf7fc;fillColor=#7305fa;" vertex="1" parent="1">
                    <mxGeometry x="570" y="530" width="160" height="80" as="geometry"/>
                </mxCell>
                <mxCell id="21" value="&lt;b&gt;End&lt;/b&gt;" style="ellipse;whiteSpace=wrap;html=1;strokeColor=#faf7fc;fillColor=#7305fa;" vertex="1" parent="1">
                    <mxGeometry x="380" y="900" width="120" height="80" as="geometry"/>
                </mxCell>
                <mxCell id="27" style="edgeStyle=none;html=1;exitX=0.5;exitY=1;exitDx=0;exitDy=0;entryX=0.5;entryY=0;entryDx=0;entryDy=0;" edge="1" parent="1" source="23" target="26">
                    <mxGeometry relative="1" as="geometry"/>
                </mxCell>
                <mxCell id="23" value="&lt;b&gt;Adding a new task is done !&lt;/b&gt;" style="shape=parallelogram;perimeter=parallelogramPerimeter;whiteSpace=wrap;html=1;fixedSize=1;strokeColor=#faf7fc;fillColor=#7305fa;" vertex="1" parent="1">
                    <mxGeometry x="370" y="680" width="140" height="70" as="geometry"/>
                </mxCell>
                <mxCell id="28" style="edgeStyle=none;html=1;exitX=0.5;exitY=1;exitDx=0;exitDy=0;entryX=0.5;entryY=0;entryDx=0;entryDy=0;" edge="1" parent="1" source="26" target="21">
                    <mxGeometry relative="1" as="geometry"/>
                </mxCell>
                <mxCell id="26" value="&lt;b&gt;Output form, will be pass in the array&lt;/b&gt;" style="rounded=0;whiteSpace=wrap;html=1;strokeColor=#faf7fc;fillColor=#7305fa;" vertex="1" parent="1">
                    <mxGeometry x="370" y="790" width="140" height="70" as="geometry"/>
                </mxCell>
            </root>
        </mxGraphModel>
    </diagram>
</mxfile>